HIERARCHY
ROOT Hips
{
    OFFSET 0.000000 0.000000 0.000000
    CHANNELS 6 Xposition Yposition Zposition Zrotation Xrotation Yrotation
    JOINT Spine
    {
        OFFSET -0.000000 7.246840 0.000000
        CHANNELS 3 Zrotation Xrotation Yrotation
        JOINT Spine1
        {
            OFFSET -0.000000 20.289354 0.000000
            CHANNELS 3 Zrotation Xrotation Yrotation
            JOINT Neck
            {
                OFFSET -0.000000 20.206032 1.836912
                CHANNELS 3 Zrotation Xrotation Yrotation
                JOINT Head
                {
                    OFFSET -0.000000 12.372654 -1.767522
                    CHANNELS 3 Zrotation Xrotation Yrotation
                    End Site
                    {
                        OFFSET -0.000000 22.094025 0.000000
                    }
                }
            }
            JOINT LeftShoulder
            {
                OFFSET 3.465871 17.201674 -0.568930
                CHANNELS 3 Zrotation Xrotation Yrotation
                JOINT LeftArm
                {
                    OFFSET 14.070313 0.000000 0.000000
                    CHANNELS 3 Zrotation Xrotation Yrotation
                    JOINT LeftForeArm
                    {
                        OFFSET 26.549477 0.000000 0.000000
                        CHANNELS 3 Zrotation Xrotation Yrotation
                        JOINT LeftHand
                        {
                            OFFSET 18.880413 0.000000 0.000000
                            CHANNELS 3 Zrotation Xrotation Yrotation
                            End Site
                            {
                                OFFSET 13.256415 0.000000 0.000000
                            }
                        }
                    }
                }
            }
            JOINT RightShoulder
            {
                OFFSET -3.526370 17.201674 -0.568930
                CHANNELS 3 Zrotation Xrotation Yrotation
                JOINT RightArm
                {
                    OFFSET -14.070313 0.000000 0.000000
                    CHANNELS 3 Zrotation Xrotation Yrotation
                    JOINT RightForeArm
                    {
                        OFFSET -26.549477 0.000000 0.000000
                        CHANNELS 3 Zrotation Xrotation Yrotation
                        JOINT RightHand
                        {
                            OFFSET -18.880413 0.000000 0.000000
                            CHANNELS 3 Zrotation Xrotation Yrotation
                            End Site
                            {
                                OFFSET -13.256415 0.000000 0.000000
                            }
                        }
                    }
                }
            }
        }
    }
    JOINT LeftUpLeg
    {
        OFFSET 8.837609 0.000000 0.000000
        CHANNELS 3 Zrotation Xrotation Yrotation
        JOINT LeftLeg
        {
            OFFSET -0.000000 -41.345005 0.000000
            CHANNELS 3 Zrotation Xrotation Yrotation
            JOINT LeftFoot
            {
                OFFSET -0.000000 -35.500874 0.000000
                CHANNELS 3 Zrotation Xrotation Yrotation
                JOINT LeftToeBase
                {
                    OFFSET -0.000000 -5.744446 13.256415
                    CHANNELS 3 Zrotation Xrotation Yrotation
                    End Site
                    {
                        OFFSET -0.000000 0.000000 3.535044
                    }
                }
            }
        }
    }
    JOINT RightUpLeg
    {
        OFFSET -8.837609 0.000000 0.000000
        CHANNELS 3 Zrotation Xrotation Yrotation
        JOINT RightLeg
        {
            OFFSET -0.000000 -41.345005 0.000000
            CHANNELS 3 Zrotation Xrotation Yrotation
            JOINT RightFoot
            {
                OFFSET -0.000000 -35.500874 0.000000
                CHANNELS 3 Zrotation Xrotation Yrotation
                JOINT RightToeBase
                {
                    OFFSET -0.000000 -5.744446 13.256415
                    CHANNELS 3 Zrotation Xrotation Yrotation
                    End Site
                    {
                        OFFSET -0.000000 0.000000 3.535044
                    }
                }
            }
        }
    }
}
MOTION
Frames:    13
Frame Time:    0.010000
6.982347    82.372719    -62.092995    3.879464    4.510720    -1.312658    -1.491628    -14.276434    0.086049    -4.578642    1.009685    0.313409    2.332603    32.022682    -2.705827    3.005427    -10.025488    -1.766061    0.603016    -0.014926    -0.007202    -10.821612    15.582832    -2.632897    -7.128235    -13.776820    -15.892205    -23.275541    -13.845095    -4.493612    -16.364563    0.700630    11.498605    17.245520    5.309028    8.894792    -1.685258    -3.236652    2.090273    6.695000    -2.379342    14.077689    -3.451111    5.657943    -0.648572    -2.490015    -9.502786    -5.011317    4.324021    0.351017    -2.151282    -1.354287    -1.174395    1.909337    -8.480042    4.666523    1.397058    7.802655    -11.132676    2.434435    -1.790061    0.070858    -9.119790    -0.435555    -1.731340    0.796074    
6.973116    82.371834    -62.093956    3.887755    4.506040    -1.318294    -1.495263    -14.275793    0.091106    -4.590288    1.016155    0.319019    2.354808    32.015358    -2.712273    2.990770    -10.031021    -1.772644    1.267502    -0.030456    -0.001881    -11.921570    15.273683    -2.652627    -6.686703    -13.648612    -15.597444    -23.417496    -13.631415    -4.507123    -16.355164    0.689656    11.502570    17.251257    5.347056    8.883794    -1.690954    -3.262110    2.101271    6.722224    -2.399781    14.101134    -3.452874    5.659340    -0.652475    -2.495283    -9.490602    -4.989663    4.443786    0.316867    -2.160007    -1.340501    -1.075772    1.888764    -8.480149    4.672462    1.398004    7.806062    -11.138091    2.391232    -1.805618    0.069451    -9.085012    -0.455735    -1.741337    0.833049    
6.963542    82.370850    -62.096710    3.897260    4.508491    -1.325494    -1.492464    -14.278988    0.096981    -4.622512    1.022774    0.325463    2.362580    32.020042    -2.707106    3.011969    -10.043881    -1.760784    1.995864    -0.045867    0.020746    -13.106297    14.877496    -2.695610    -6.215082    -13.500242    -15.269419    -23.566545    -13.395351    -4.512315    -16.320633    0.682230    11.494938    17.244967    5.344486    8.891932    -1.686729    -3.261064    2.111714    6.735922    -2.397506    14.092056    -3.325109    5.565894    -1.170702    -2.655440    -9.303600    -5.045284    4.447456    0.274711    -1.601071    -1.358916    -1.170888    1.915821    -8.484504    4.669177    1.413352    7.797801    -11.147856    2.401982    -1.787085    0.079011    -9.065687    -0.416101    -1.747696    0.760657    
6.951899    82.369980    -62.097786    3.902444    4.504116    -1.327575    -1.463618    -14.279116    0.086640    -4.806158    1.031447    0.313488    2.684594    32.012131    -2.740773    2.848405    -10.059701    -1.782590    2.790183    -0.060247    0.060867    -14.176255    14.584575    -2.690807    -5.847075    -13.390785    -15.055777    -23.587803    -13.224846    -4.518152    -16.090637    0.687665    11.545938    17.154871    5.362426    8.840892    -1.684090    -3.277072    2.180307    6.776577    -2.409163    14.064954    -3.453379    5.653705    -0.645467    -2.471495    -9.487926    -5.077747    4.463761    0.188427    -1.299502    -0.934969    -0.804676    1.315228    -8.482756    4.675336    1.415006    7.798760    -11.154592    2.428928    -1.815661    0.078430    -9.106847    -0.437259    -1.741677    0.799282    
6.943267    82.369675    -62.100231    3.911444    4.507301    -1.327608    -1.464812    -14.279889    0.093987    -4.810483    1.028929    0.320729    2.676038    32.015675    -2.742911    2.853619    -10.080103    -1.784349    3.649717    -0.073341    0.121157    -15.590150    14.091270    -2.816443    -5.270699    -13.168152    -14.640402    -23.723597    -12.903195    -4.518486    -16.094549    0.676392    11.528897    17.164175    5.412573    8.855324    -1.693328    -3.287315    2.168505    6.830268    -2.412109    14.075945    -3.458232    5.646504    -0.674356    -2.470362    -9.483088    -5.041083    4.876684    0.224671    -2.072716    -1.213780    -0.882312    1.708214    -8.486320    4.644418    1.188976    7.846889    -11.061847    2.674459    -1.798795    0.041152    -9.132739    -0.435806    -1.760101    0.796789    
6.932714    82.369812    -62.101044    3.915913    4.508552    -1.327985    -1.484976    -14.287922    0.086194    -4.787816    1.037136    0.315800    2.657035    32.013660    -2.732355    2.866749    -10.085414    -1.773285    4.574896    -0.084051    0.202862    -17.120966    13.649513    -2.942766    -4.607306    -12.955017    -14.188464    -23.845007    -12.569627    -4.586206    -16.095844    0.676457    11.545641    17.164017    5.422715    8.848881    -1.697633    -3.303121    2.190587    6.875362    -2.422564    14.065433    -3.314507    5.543252    -1.205714    -2.684774    -9.251172    -4.989569    4.607152    0.224920    -1.607083    -1.334820    -1.080978    1.880821    -8.481323    4.644968    1.192851    7.842187    -11.063195    2.694773    -1.798896    0.033947    -9.146264    -0.410680    -1.763386    0.750880    
6.925642    82.370056    -62.102898    3.923946    4.503901    -1.330434    -1.477834    -14.283181    0.092314    -4.814123    1.038076    0.321130    2.724176    31.960812    -2.750916    2.805374    -10.042678    -1.798604    5.554299    -0.091413    0.307119    -18.682707    13.161292    -3.130867    -3.928054    -12.702291    -13.722667    -24.024649    -12.209365    -4.592206    -16.084475    0.673980    11.547426    17.178312    5.425660    8.839481    -1.696025    -3.313607    2.208494    6.884696    -2.431386    14.070303    -3.325857    5.546589    -1.211272    -2.660218    -9.252758    -4.997088    4.439236    0.250949    -1.577071    -1.342261    -1.191494    1.892583    -8.491015    4.677759    1.437454    7.810445    -11.162894    2.404205    -1.823104    0.068783    -9.081187    -0.417330    -1.751114    0.762934    
6.915744    82.371025    -62.105350    3.932434    4.505929    -1.333488    -1.493315    -14.285035    0.092631    -4.798015    1.037687    0.323260    2.722481    31.959976    -2.752482    2.801197    -10.050608    -1.801317    6.575669    -0.094593    0.432051    -20.326368    12.710690    -3.350299    -3.198141    -12.460910    -13.218252    -24.221876    -11.847297    -4.649829    -16.093916    0.659937    11.555795    17.194172    5.455224    8.828480    -1.695826    -3.326580    2.216927    6.884996    -2.443597    14.080339    -3.464665    5.622877    -0.665277    -2.462568    -9.433532    -5.077577    4.411432    0.308891    -2.019668    -1.344191    -1.069072    1.893886    -8.489229    4.646762    1.197663    7.836190    -11.079228    2.715013    -1.872675    0.062886    -9.166051    -0.449617    -1.773020    0.822158    
6.906359    82.371819    -62.107140    3.941108    4.506278    -1.325576    -1.501310    -14.281556    0.096872    -4.791611    1.031477    0.328121    2.734920    31.954521    -2.757179    2.780582    -10.050735    -1.809126    7.621546    -0.093216    0.574396    -21.992804    12.258868    -3.619628    -2.507225    -12.069944    -12.570132    -23.524084    -11.293391    -5.131397    -16.101725    0.671178    11.538124    17.204615    5.439749    8.842299    -1.687796    -3.310384    2.210888    6.864096    -2.431009    14.067355    -3.331769    5.525326    -1.222140    -2.662582    -9.217538    -4.958905    4.578232    0.206416    -1.588266    -1.336327    -1.067188    1.882786    -8.493420    4.648116    1.206628    7.849292    -11.072706    2.678132    -1.844817    0.044967    -9.127002    -0.419083    -1.758140    0.766198    
6.897312    82.373093    -62.107788    3.944100    4.503824    -1.327042    -1.514577    -14.280028    0.093852    -4.762544    1.030364    0.326549    2.689598    31.943581    -2.735206    2.816561    -10.036804    -1.785757    8.468422    -0.089161    0.694099    -23.366053    11.752346    -3.812484    -1.753855    -11.848541    -12.075579    -23.702417    -10.958937    -5.205365    -16.121117    0.667113    11.549670    17.216522    5.436576    8.837264    -1.678711    -3.292803    2.214154    6.828095    -2.418020    14.067006    -3.323808    5.519029    -1.248639    -2.664561    -9.203726    -4.969259    4.602159    0.204136    -1.558755    -1.324945    -1.075732    1.866848    -8.490931    4.652306    1.207684    7.852386    -11.078579    2.676567    -1.828266    0.028126    -9.135779    -0.423395    -1.750835    0.774019    
6.887979    82.373917    -62.110710    3.951131    4.511364    -1.323756    -1.519220    -14.286594    0.100336    -4.762770    1.031273    0.333626    2.714171    31.935818    -2.731037    2.790911    -10.038898    -1.783580    8.468422    -0.089161    0.694099    -23.408909    11.263022    -3.830980    -1.156247    -11.680600    -11.686135    -23.803392    -10.706334    -5.269878    -16.102139    0.650598    11.534255    17.207417    5.452027    8.836302    -1.673606    -3.271837    2.208446    6.812481    -2.400128    14.050959    -3.473519    5.594422    -0.659123    -2.444050    -9.399095    -5.085939    4.421580    0.299021    -2.007431    -1.331252    -1.052640    1.875470    -8.491626    4.644602    1.212377    7.846433    -11.084257    2.651845    -1.837282    0.032797    -9.117777    -0.425306    -1.751422    0.777517    
6.881674    82.374931    -62.109779    3.958943    4.503270    -1.319309    -1.527057    -14.283375    0.098890    -4.757448    1.041486    0.333652    2.732782    31.920645    -2.732605    2.764190    -10.036295    -1.788908    8.468422    -0.089161    0.694099    -23.412167    11.232224    -3.805655    -1.189517    -11.701204    -11.742251    -23.763191    -10.737253    -5.248482    -16.089024    0.642734    11.535501    17.192932    5.462325    8.831579    -1.677723    -3.266988    2.205787    6.815688    -2.395758    14.035797    -3.473951    5.595849    -0.684528    -2.451718    -9.385945    -5.080073    4.310177    0.323503    -1.970104    -1.322924    -1.196213    1.865373    -8.498893    4.655546    1.207476    7.854538    -11.085904    2.677674    -1.840316    0.033679    -9.137690    -0.425243    -1.743233    0.777331    
6.872351    82.375404    -62.110935    3.964788    4.506726    -1.314541    -1.542542    -14.290442    0.098534    -4.728511    1.042734    0.335185    2.713127    31.919733    -2.714465    2.772501    -10.037167    -1.771207    8.468422    -0.089161    0.694099    -23.438719    11.223673    -3.795866    -1.144871    -11.664362    -11.746695    -23.862293    -10.700240    -5.204830    -16.107990    0.635728    11.540183    17.203426    5.452888    8.825100    -1.683738    -3.256604    2.187541    6.820107    -2.384354    14.045597    -3.475871    5.587687    -0.669345    -2.463806    -9.368857    -4.998409    4.444358    0.274642    -2.063984    -1.310749    -1.074140    1.846830    -8.493155    4.651579    1.198214    7.839902    -11.081672    2.695630    -1.841120    0.034175    -9.155909    -0.438617    -1.777626    0.802085    
